<?xml version="1.0" encoding="utf-8"?>
<!-- Generator: Adobe Illustrator 18.1.0, SVG Export Plug-In . SVG Version: 6.00 Build 0)  -->
<svg version="1.1" xmlns="http://www.w3.org/2000/svg" xmlns:xlink="http://www.w3.org/1999/xlink" x="0px" y="0px"
	 viewBox="0 0 308.7 310" enable-background="new 0 0 308.7 310" xml:space="preserve">
<g id="logo">
</g>
<g id="Typologo">
	<path fill="#999999" stroke="#919191" stroke-miterlimit="10" d="M25.2,130.8c-1.9-3.8,1.5-8.3,2.3-10.4c0.8-2.1,5.9-5.7,13.8-6.6
		s14.4,1.1,19.8,6.4c5.5,5.3,2.8,17.4-0.2,26.6s-7.6,19.1-9.4,27.8c-1.9,8.7,5.1,17,8.5,18.1c3.4,1.1,13.6-3.8,13.6-3.8
		s-5.5,1.2-9.4-5.3c-7.6-12.5-1.9-24.9-1.9-24.9s3.2-4.2,10.2-3.6c7,0.6,21,6.6,21,6.6l5.7-0.2c0,0-3.6-2.1-7.7-4
		c-4.2-1.9-9.1-5.3-15.1-11.7s-2.6-17.4-1.1-23c1.5-5.7,3.5-8.7,8.9-12.8c8.1-6.2,23.2-2.5,23.2-2.5s9.6,3,14.4,9.3
		s3.8,16.8,3.8,19.3s1.3,4.2,3,5.1c1.7,0.9,2.8,4.3,2.8,8.1c0,3.8-2.3,7.2-4.9,9.6c-2.6,2.5-2.5,4.7-2.1,7.6
		c0.4,2.8,3.4,2.8,8.5,3.9c5.1,1,10.8,6.1,14,8.8c3.2,2.6,7,2.6,7,2.6s7.4-0.2,11.3-4s11.4-18.9,16.8-23.2c5.5-4.3,13-5.7,22.1-3.4
		c9.1,2.3,9.6,10.4,9.8,16.6c0.1,4.4-2,7.8-3.4,10c1.9-0.1,4.2-0.2,6.8,0c2.3,0.2,4.3,0.6,6,1l-2.4-8.9c1.3,2,2.6,3.9,3.9,5.9
		c0.2,0.5,0.9,1.9,2.4,2.8c1.5,1,3.1,1,3.6,1c10.5,1.3,27.4,11.9,41.2,18.9c13.8,7,14.7,4.7,17.2,3.4c2.5-1.3,7.7-7.4,9.1-11.9
		c1.3-4.5,2.1-10.6,2.3-5.7c0.2,4.9-1.9,11.7-1.9,11.7s-4.7,8.7-10.4,10.6c-5.7,1.9-13.2-1.3-13.8-1.3s-13.4-6.2-13.4-6.2
		s-20-10.8-24-12.3c-4-1.5-10-1.9-14-2.6s-11-0.4-14.4,0c-3.4,0.4-5.5,2.1-5.5,2.1s-0.6,1.3-0.4,2.3c0.2,0.9,6.2,4,10.2,4
		s9.1-2.1,10.4-3.4c1.3-1.3,1.5-4.6,1.5-4.6l4.5,0.6l-0.1,0.9c0,0-1.1,4.9-2.6,6.4c-1.5,1.5-7,4.5-14,5.1c-7,0.6-10.6-1.7-10.6-1.7
		s-4.5-1.8-5.5-4.9c-3.8,3-17.6,9.4-17.6,9.4s-12.5,3.2-20,2.3c-7.6-0.9-14.9-5.7-14.9-5.7s-6.4-3.8-10.4-3.8s-7.6,3.2-7.6,3.2
		s-4,3-6.6,3.2c-2.6,0.2-9.3-1.3-9.3-1.3l-3.2,2.8c0,0-15.9,10.2-21,11.9c-5.1,1.7-11,0.9-15.3-0.9c-4.3-1.9-9.4-7.7-10.6-7.9
		c-1.1-0.2-7.6,3.6-8.3,7.6c-0.8,4,1,5.8,6,8.6c-2.2-0.4-6-1.1-9.8-3.4c-3.1-2.6-3.9-3.8-3.6-7.9c0.3-4,7-9.8,7-9.8s0,0-3-1.9
		c-3-1.9-7.4-8.7-8.5-17.2c-1.1-8.5,10.8-28.5,10.8-28.5s11.7-22.3,1.3-29.3c-10.4-7-19.5,1.7-21.9,5.7c-2.5,4,3.2,10.8,3.2,10.8
		C31.6,137.6,27.1,134.6,25.2,130.8z M147.1,188.4c0,0,3.3,3.5,11.1,4.1c7.8,0.6,20.3-2.1,20.3-2.1s2.4-0.4,5-2.1
		c2.6-1.7,11.5-6.4,11.5-6.4s8.6-4.2,9.9-5.7c1.3-1.5,5.7-9.3,1.3-16.4s-14.3-5.4-14.3-5.4s-3,0.4-6.4,5.2c-3.6,5.1-4,6.1-4.9,7.2
		c-0.9,1.1-6.9,13.1-10.1,16.2c-3.3,3.1-6.9,6-14.8,6L147.1,188.4z M80.3,198.3c-2.8,0.8-8.5,1.6-8.5,1.6s0,0,13.2-0.9
		s21.1-22.8,21.1-22.8C101.5,190.5,83.1,197.6,80.3,198.3z M73.9,162.3c-2.3,0.3-7.2,2.2-6.1,7.4c1,5.2,6,7.3,11,7
		s12.9-8.1,12.9-8.1S76.1,162,73.9,162.3z M106.8,146.4c-3.2,0-3.9,4.2-3.8,6c0.1,1.8,1,5.8,3.4,6s3.3-2.9,3.4-6.3
		C110.1,148.6,108.1,146.4,106.8,146.4z M124.7,142.9c-3.2,0-3.9,4.2-3.8,6c0.1,1.8,1,5.8,3.4,6c2.5,0.2,3.3-2.9,3.4-6.3
		C128,145.1,125.9,142.9,124.7,142.9z"/>
	<path fill="#999999" stroke="#919191" stroke-miterlimit="10" d="M57,51.6c6,0,11.2,2.3,15.5,6.8c4.3,4.5,6.4,9.9,6.4,16.2
		c0,6.4-2.2,11.8-6.5,16.3c-4.3,4.5-9.6,6.7-15.8,6.7c-6.1,0-11.4-2.2-15.7-6.7c-4.3-4.5-6.5-9.9-6.5-16.3c0-6.4,2.2-11.9,6.6-16.3
		C45.3,53.8,50.6,51.6,57,51.6z M56.6,64.5c-2.6,0-4.8,1-6.6,3c-1.8,2-2.7,4.3-2.7,7.1c0,2.8,0.9,5.2,2.7,7.1c1.8,2,4,3,6.6,3
		c2.6,0,4.8-1,6.6-2.9c1.8-2,2.7-4.3,2.7-7.1c0-2.8-0.9-5.2-2.7-7.1C61.4,65.5,59.2,64.5,56.6,64.5z"/>
	<path fill="#999999" stroke="#919191" stroke-miterlimit="10" d="M131.4,75.1l13.2,0.4c-0.9,7.1-3.2,12.5-7.1,16.4
		c-3.9,3.9-8.9,5.8-15.1,5.8c-6.3,0-11.6-2.2-15.9-6.6c-4.3-4.4-6.4-9.8-6.4-16.3c0-6.5,2.2-12,6.5-16.5c4.3-4.5,9.7-6.7,16-6.7
		c6.3,0,11.5,2.2,15.7,6.6c2.9,3,4.9,7.2,6.2,12.6L131,71.7c-1.5-4.8-4.4-7.2-8.6-7.2c-2.7,0-4.9,1-6.7,2.9
		c-1.8,1.9-2.6,4.4-2.6,7.4c0,2.9,0.9,5.2,2.6,7.1c1.7,1.9,3.9,2.8,6.5,2.8c2.7,0,4.8-0.8,6.4-2.5C130.1,80.6,131.1,78.2,131.4,75.1
		z"/>
	<path fill="#999999" stroke="#919191" stroke-miterlimit="10" d="M189.3,65.3v31.3h-12.6V65.3H167V52.7h31.9v12.6H189.3z"/>
	<path fill="#999999" stroke="#919191" stroke-miterlimit="10" d="M243.5,51.6c6,0,11.2,2.3,15.5,6.8c4.3,4.5,6.4,9.9,6.4,16.2
		c0,6.4-2.2,11.8-6.5,16.3c-4.3,4.5-9.6,6.7-15.8,6.7c-6.1,0-11.4-2.2-15.7-6.7c-4.3-4.5-6.5-9.9-6.5-16.3c0-6.4,2.2-11.9,6.6-16.3
		C231.8,53.8,237.1,51.6,243.5,51.6z M243.1,64.5c-2.6,0-4.8,1-6.6,3c-1.8,2-2.7,4.3-2.7,7.1c0,2.8,0.9,5.2,2.7,7.1c1.8,2,4,3,6.6,3
		c2.6,0,4.8-1,6.6-2.9c1.8-2,2.7-4.3,2.7-7.1c0-2.8-0.9-5.2-2.7-7.1C247.9,65.5,245.7,64.5,243.1,64.5z"/>
	<path fill="#999999" stroke="#919191" stroke-miterlimit="10" d="M36.9,143l11.8,0.3c-0.8,6.3-2.9,11.2-6.4,14.7
		c-3.5,3.5-8,5.2-13.5,5.2c-5.7,0-10.4-2-14.2-5.9c-3.8-3.9-5.7-8.8-5.7-14.6c0-5.9,1.9-10.8,5.8-14.8c3.9-4,8.7-6,14.4-6
		c5.6,0,10.3,2,14,5.9c2.6,2.7,4.4,6.5,5.5,11.3l-12.1,0.8c-1.4-4.3-3.9-6.4-7.7-6.4c-2.4,0-4.4,0.9-6,2.6c-1.6,1.7-2.4,3.9-2.4,6.6
		c0,2.6,0.8,4.7,2.3,6.4c1.5,1.7,3.5,2.5,5.8,2.5c2.4,0,4.3-0.7,5.7-2.2C35.8,147.9,36.6,145.7,36.9,143z"/>
	<path fill="#999999" stroke="#919191" stroke-miterlimit="10" d="M155,140.8c5.4,0,10,2,13.8,6.1c3.8,4,5.8,8.9,5.8,14.5
		c0,5.7-1.9,10.6-5.8,14.6c-3.9,4-8.6,6-14.1,6c-5.5,0-10.2-2-14.1-6c-3.9-4-5.8-8.9-5.8-14.6c0-5.8,2-10.6,5.9-14.6
		C144.5,142.8,149.3,140.8,155,140.8z M154.7,152.4c-2.3,0-4.3,0.9-5.9,2.6c-1.6,1.8-2.4,3.9-2.4,6.4c0,2.5,0.8,4.6,2.5,6.4
		c1.6,1.8,3.6,2.6,5.9,2.6c2.3,0,4.3-0.9,5.9-2.6c1.6-1.8,2.4-3.9,2.4-6.4c0-2.5-0.8-4.6-2.4-6.4C159,153.3,157,152.4,154.7,152.4z"
		/>
	<path fill="#999999" stroke="#919191" stroke-miterlimit="10" d="M206.2,203.6l0.1-28l11.3,0l-0.1,28l8.7,0l0,11.3l-28.6-0.1
		l0-11.3L206.2,203.6z"/>
	<path fill="#999999" stroke="#919191" stroke-miterlimit="10" d="M289.3,178.7v8.7h-7.4c-1,0-1.7,0.2-2.1,0.5
		c-0.4,0.3-0.6,0.8-0.6,1.6c0,0.8,0.2,1.4,0.6,1.6c0.4,0.3,1.3,0.4,2.6,0.4h7.6v11.2h-8.9c-4.2,0-7.4-1-9.6-3.1
		c-2.2-2.1-3.3-5-3.3-8.9v-15.4c0-3.8,1-6.7,3.1-8.7c2.1-2.1,5-3.1,8.8-3.1h9.8v11.3h-7.2c-1.9,0-2.9,0.7-2.9,2
		c0,0.8,0.2,1.3,0.7,1.6c0.5,0.3,1.3,0.4,2.5,0.4H289.3z"/>
</g>
</svg>
