<?xml version="1.0" encoding="utf-8"?>
<!-- Generator: Adobe Illustrator 18.1.0, SVG Export Plug-In . SVG Version: 6.00 Build 0)  -->
<svg version="1.1" xmlns="http://www.w3.org/2000/svg" xmlns:xlink="http://www.w3.org/1999/xlink" x="0px" y="0px"
	 viewBox="0 0 308.7 101" enable-background="new 0 0 308.7 101" xml:space="preserve">
<g id="logo">
</g>
<g id="Typologo">
	<path fill="#F9ED23" d="M8.8,23c-1.7-3.3,1.3-7.3,2-9.2S16,8.8,23,8s12.7,1,17.5,5.7c4.8,4.7,2.5,15.3-0.2,23.5S33.7,54,32,61.7
		c-1.7,7.7,4.5,15,7.5,16s12-3.3,12-3.3s-4.9,1-8.3-4.7c-6.7-11-1.7-22-1.7-22s2.8-3.7,9-3.2C56.7,45,69,50.3,69,50.3l5-0.2
		c0,0-3.2-1.8-6.8-3.5c-3.7-1.7-8-4.7-13.3-10.3S51.5,21,52.8,16s3.1-7.7,7.8-11.3c7.2-5.5,20.5-2.2,20.5-2.2s8.5,2.7,12.7,8.2
		s3.3,14.8,3.3,17s1.2,3.7,2.7,4.5c1.5,0.8,2.5,3.8,2.5,7.2c0,3.3-2,6.3-4.3,8.5c-2.3,2.2-2.2,4.2-1.8,6.7c0.3,2.5,3,2.5,7.5,3.4
		c4.5,0.9,9.5,5.4,12.3,7.7c2.8,2.3,6.2,2.3,6.2,2.3s6.5-0.2,10-3.5c3.5-3.3,10-16.7,14.9-20.5c4.8-3.8,11.5-5,19.5-3
		s8.5,9.2,8.7,14.7c0.1,3.9-1.8,6.9-3,8.8c1.7-0.1,3.7-0.2,6,0c2,0.2,3.8,0.5,5.3,0.9l-2.1-7.8c1.1,1.7,2.3,3.4,3.4,5.2
		c0.2,0.5,0.8,1.6,2.1,2.5c1.4,0.9,2.7,0.9,3.2,0.9c9.3,1.1,24.2,10.5,36.3,16.7c12.2,6.2,13,4.2,15.2,3c2.2-1.2,6.8-6.5,8-10.5
		c1.2-4,1.8-9.3,2-5c0.2,4.3-1.7,10.3-1.7,10.3s-4.2,7.7-9.2,9.3s-11.7-1.2-12.2-1.2s-11.8-5.5-11.8-5.5s-17.7-9.5-21.2-10.8
		s-8.8-1.7-12.3-2.3c-3.5-0.7-9.7-0.3-12.7,0c-3,0.3-4.8,1.8-4.8,1.8s-0.5,1.2-0.3,2c0.2,0.8,5.5,3.5,9,3.5s8-1.8,9.2-3
		c1.2-1.2,1.3-4.1,1.3-4.1l4,0.6l-0.1,0.8c0,0-1,4.3-2.3,5.7c-1.3,1.3-6.2,4-12.3,4.5c-6.2,0.5-9.3-1.5-9.3-1.5s-3.9-1.6-4.8-4.3
		c-3.3,2.7-15.5,8.3-15.5,8.3s-11,2.8-17.7,2c-6.7-0.8-13.2-5-13.2-5s-5.7-3.3-9.2-3.3S97.8,81,97.8,81s-3.5,2.7-5.8,2.8
		c-2.3,0.2-8.2-1.2-8.2-1.2L81,85.2c0,0-14,9-18.5,10.5s-9.7,0.8-13.5-0.8c-3.8-1.7-8.3-6.8-9.3-7c-1-0.2-6.7,3.2-7.3,6.7
		c-0.7,3.5,0.9,5.1,5.3,7.6c-1.9-0.4-5.3-1-8.6-3c-2.8-2.3-3.5-3.4-3.2-7c0.3-3.5,6.2-8.7,6.2-8.7s0,0-2.7-1.7
		c-2.7-1.7-6.5-7.7-7.5-15.2s9.5-25.2,9.5-25.2s10.3-19.7,1.2-25.8c-9.2-6.2-17.2,1.5-19.3,5C11,24.2,16,30.2,16,30.2
		C14.5,29,10.5,26.3,8.8,23z M116.4,73.9c0,0,2.9,3.1,9.8,3.6c6.9,0.5,17.9-1.8,17.9-1.8s2.1-0.3,4.4-1.8s10.1-5.6,10.1-5.6
		s7.6-3.7,8.8-5s5-8.2,1.1-14.5S155.8,44,155.8,44s-2.6,0.3-5.7,4.6c-3.2,4.5-3.5,5.4-4.3,6.4s-6.1,11.6-8.9,14.3s-6.1,5.3-13.1,5.3
		L116.4,73.9z M57.4,82.6c-2.5,0.7-7.5,1.4-7.5,1.4s0,0,11.7-0.8c11.7-0.8,18.6-20.1,18.6-20.1C76.2,75.7,59.9,81.9,57.4,82.6z
		 M51.8,50.8c-2,0.3-6.3,1.9-5.4,6.5c0.9,4.6,5.3,6.4,9.7,6.2s11.4-7.2,11.4-7.2S53.8,50.6,51.8,50.8z M80.8,36.8
		c-2.8,0-3.4,3.7-3.3,5.3c0.1,1.6,0.9,5.1,3,5.3c2.2,0.2,2.9-2.6,3-5.6C83.8,38.8,81.9,36.8,80.8,36.8z M96.6,33.7
		c-2.8,0-3.4,3.7-3.3,5.3c0.1,1.6,0.9,5.1,3,5.3c2.2,0.2,2.9-2.6,3-5.6C99.5,35.7,97.7,33.7,96.6,33.7z"/>
	<g>
		<path fill="#F9ED23" d="M127.7,16.7c3.5,0,6.4,1.3,8.9,3.9c2.5,2.6,3.7,5.7,3.7,9.4c0,3.7-1.2,6.8-3.7,9.4
			c-2.5,2.6-5.5,3.9-9.1,3.9c-3.6,0-6.6-1.3-9.1-3.9s-3.8-5.7-3.8-9.4c0-3.7,1.3-6.9,3.8-9.4C121,18,124.1,16.7,127.7,16.7z
			 M127.5,24.2c-1.5,0-2.8,0.6-3.8,1.7c-1.1,1.1-1.6,2.5-1.6,4.1c0,1.6,0.5,3,1.6,4.1c1.1,1.1,2.3,1.7,3.8,1.7
			c1.5,0,2.8-0.6,3.8-1.7c1-1.1,1.6-2.5,1.6-4.1c0-1.6-0.5-3-1.6-4.1C130.3,24.7,129,24.2,127.5,24.2z"/>
		<path fill="#F9ED23" d="M160.4,30.3l7.6,0.2c-0.5,4.1-1.9,7.2-4.1,9.5c-2.2,2.2-5.1,3.3-8.7,3.3c-3.6,0-6.7-1.3-9.2-3.8
			c-2.5-2.5-3.7-5.7-3.7-9.4c0-3.8,1.3-6.9,3.8-9.5c2.5-2.6,5.6-3.9,9.3-3.9c3.6,0,6.6,1.3,9,3.8c1.7,1.7,2.9,4.2,3.6,7.3l-7.8,0.5
			c-0.9-2.8-2.5-4.2-5-4.2c-1.6,0-2.8,0.6-3.8,1.7c-1,1.1-1.5,2.5-1.5,4.2c0,1.7,0.5,3,1.5,4.1c1,1.1,2.2,1.6,3.8,1.6
			c1.5,0,2.8-0.5,3.7-1.4C159.6,33.4,160.2,32.1,160.4,30.3z"/>
		<path fill="#F9ED23" d="M182.1,24.6v18.1h-7.3V24.6h-5.6v-7.3h18.4v7.3H182.1z"/>
		<path fill="#F9ED23" d="M201.9,16.7c3.5,0,6.4,1.3,8.9,3.9c2.5,2.6,3.7,5.7,3.7,9.4c0,3.7-1.2,6.8-3.7,9.4
			c-2.5,2.6-5.5,3.9-9.1,3.9c-3.6,0-6.6-1.3-9.1-3.9s-3.8-5.7-3.8-9.4c0-3.7,1.3-6.9,3.8-9.4C195.2,18,198.3,16.7,201.9,16.7z
			 M201.7,24.2c-1.5,0-2.8,0.6-3.8,1.7c-1.1,1.1-1.6,2.5-1.6,4.1c0,1.6,0.5,3,1.6,4.1c1.1,1.1,2.3,1.7,3.8,1.7
			c1.5,0,2.8-0.6,3.8-1.7c1-1.1,1.6-2.5,1.6-4.1c0-1.6-0.5-3-1.6-4.1C204.5,24.7,203.2,24.2,201.7,24.2z"/>
		<path fill="#F9ED23" d="M234.6,30.3l7.6,0.2c-0.5,4.1-1.9,7.2-4.1,9.5c-2.2,2.2-5.1,3.3-8.7,3.3c-3.6,0-6.7-1.3-9.2-3.8
			c-2.5-2.5-3.7-5.7-3.7-9.4c0-3.8,1.3-6.9,3.8-9.5c2.5-2.6,5.6-3.9,9.3-3.9c3.6,0,6.6,1.3,9,3.8c1.7,1.7,2.9,4.2,3.6,7.3l-7.8,0.5
			c-0.9-2.8-2.5-4.2-5-4.2c-1.6,0-2.8,0.6-3.8,1.7c-1,1.1-1.5,2.5-1.5,4.2c0,1.7,0.5,3,1.5,4.1c1,1.1,2.2,1.6,3.8,1.6
			c1.5,0,2.8-0.5,3.7-1.4C233.9,33.4,234.4,32.1,234.6,30.3z"/>
		<path fill="#F9ED23" d="M257.2,16.7c3.5,0,6.4,1.3,8.9,3.9c2.5,2.6,3.7,5.7,3.7,9.4c0,3.7-1.2,6.8-3.7,9.4
			c-2.5,2.6-5.5,3.9-9.1,3.9c-3.6,0-6.6-1.3-9.1-3.9s-3.8-5.7-3.8-9.4c0-3.7,1.3-6.9,3.8-9.4C250.5,18,253.6,16.7,257.2,16.7z
			 M257,24.2c-1.5,0-2.8,0.6-3.8,1.7c-1.1,1.1-1.6,2.5-1.6,4.1c0,1.6,0.5,3,1.6,4.1c1.1,1.1,2.3,1.7,3.8,1.7c1.5,0,2.8-0.6,3.8-1.7
			c1-1.1,1.6-2.5,1.6-4.1c0-1.6-0.5-3-1.6-4.1C259.8,24.7,258.5,24.2,257,24.2z"/>
		<path fill="#F9ED23" d="M284,24.6v18.1h-7.3V24.6h-5.6v-7.3h18.4v7.3H284z"/>
		<path fill="#F9ED23" d="M305.3,27.2v5.6h-4.8c-0.6,0-1.1,0.1-1.4,0.3c-0.3,0.2-0.4,0.5-0.4,1c0,0.5,0.1,0.9,0.4,1
			c0.3,0.2,0.8,0.3,1.7,0.3h4.9v7.2H300c-2.7,0-4.7-0.7-6.2-2c-1.4-1.3-2.1-3.3-2.1-5.8V25c0-2.4,0.7-4.3,2-5.6s3.2-2,5.7-2h6.3v7.3
			h-4.6c-1.3,0-1.9,0.4-1.9,1.3c0,0.5,0.1,0.8,0.4,1c0.3,0.2,0.8,0.3,1.6,0.3H305.3z"/>
	</g>
</g>
</svg>
