<?xml version="1.0" encoding="utf-8"?>
<!-- Generator: Adobe Illustrator 18.1.0, SVG Export Plug-In . SVG Version: 6.00 Build 0)  -->
<svg version="1.1" xmlns="http://www.w3.org/2000/svg" xmlns:xlink="http://www.w3.org/1999/xlink" x="0px" y="0px"
	 viewBox="0 0 163.5 32.4" enable-background="new 0 0 163.5 32.4" xml:space="preserve">
<g id="fond2">
	<linearGradient id="SVGID_1_" gradientUnits="userSpaceOnUse" x1="45.4766" y1="16.375" x2="160.9333" y2="16.375">
		<stop  offset="0.9465" style="stop-color:#D8E022;stop-opacity:0.2"/>
		<stop  offset="1" style="stop-color:#2A4C8F;stop-opacity:0"/>
	</linearGradient>
	<path fill="url(#SVGID_1_)" stroke="#ECE71F" stroke-width="1.5" stroke-miterlimit="10" d="M159.6,30.3H46.9
		c-0.8,0-1.4-0.6-1.4-1.4v-25c0-0.8,0.6-1.4,1.4-1.4h112.7c0.8,0,1.4,0.6,1.4,1.4v25C160.9,29.6,160.3,30.3,159.6,30.3z"/>
	<path fill-rule="evenodd" clip-rule="evenodd" fill="#D92328" stroke="#ECE70F" stroke-miterlimit="10" d="M6.5,9.1
		C6.6,8.2,6.7,7.4,7,6.5c0.6-1.9,1.8-3.4,3.5-4.4c1.7-1,3.6-1.4,5.6-1.2c1.3,0.1,2.5,0.5,3.6,1.1C21,2.8,22.1,3.8,23,5
		c0.1,0.1,0.1,0.2,0.2,0.3c0.1-0.1,0.1-0.1,0.1-0.2c0.3-0.3,0.5-0.7,0.8-1c1.8-2,4-3.1,6.6-3.3c1.3-0.1,2.6,0.1,3.9,0.6
		c1.8,0.7,3.2,1.9,4.2,3.6c0.7,1.3,1.1,2.7,1.2,4.1c0.1,1.3,0,2.6-0.3,4c-0.3,1.6-0.8,3.1-1.5,4.6c-0.9,2-2,3.8-3.5,5.4
		c-1.3,1.4-2.7,2.7-4.2,3.9c-2.2,1.8-4.6,3.5-7.1,5c-0.1,0.1-0.2,0.1-0.3,0c-1.5-0.9-3.1-1.9-4.5-2.9c-2-1.5-4-3-5.8-4.8
		c-1.5-1.5-2.9-3.1-3.9-5c-0.7-1.3-1.3-2.6-1.7-4.1C6.7,13.1,6.3,11.1,6.5,9.1z"/>
</g>
<g id="barre">
	<linearGradient id="SVGID_2_" gradientUnits="userSpaceOnUse" x1="48.2061" y1="16.375" x2="57.4774" y2="16.375">
		<stop  offset="0.5561" style="stop-color:#FFF33B"/>
		<stop  offset="1" style="stop-color:#E93E3A"/>
	</linearGradient>
	<path fill="url(#SVGID_2_)" stroke="#FEEB00" stroke-miterlimit="10" d="M56.2,28.4h-6.8c-0.7,0-1.3-0.6-1.3-1.3V5.6
		c0-0.7,0.6-1.2,1.3-1.2h6.8c0.7,0,1.2,0.6,1.2,1.2v21.6C57.5,27.9,56.9,28.4,56.2,28.4z"/>
	<linearGradient id="SVGID_3_" gradientUnits="userSpaceOnUse" x1="60.9438" y1="16.375" x2="70.2151" y2="16.375">
		<stop  offset="0.5561" style="stop-color:#FFF33B"/>
		<stop  offset="1" style="stop-color:#E93E3A"/>
	</linearGradient>
	<path fill="url(#SVGID_3_)" stroke="#FEEB00" stroke-miterlimit="10" d="M69,28.4h-6.8c-0.7,0-1.3-0.6-1.3-1.3V5.6
		c0-0.7,0.6-1.2,1.3-1.2H69c0.7,0,1.3,0.6,1.3,1.2v21.6C70.2,27.9,69.7,28.4,69,28.4z"/>
	<linearGradient id="SVGID_4_" gradientUnits="userSpaceOnUse" x1="73.454" y1="16.375" x2="82.7253" y2="16.375">
		<stop  offset="0.5561" style="stop-color:#FFF33B"/>
		<stop  offset="1" style="stop-color:#E93E3A"/>
	</linearGradient>
	<path fill="url(#SVGID_4_)" stroke="#FEEB00" stroke-miterlimit="10" d="M81.5,28.4h-6.8c-0.7,0-1.2-0.6-1.2-1.3l0-21.6
		c0-0.7,0.6-1.2,1.3-1.2h6.8c0.7,0,1.3,0.6,1.3,1.2v21.6C82.7,27.9,82.2,28.4,81.5,28.4z"/>
</g>
</svg>
